STARTFONT 2.1
FONT -Monotype-Book Antiqua-Bold-R-Normal--14-140-75-75-P-74-iso8859-2
SIZE 14 75 75
FONTBOUNDINGBOX 19 20 -3 -5

STARTPROPERTIES 24
FOUNDRY "Monotype"
FAMILY_NAME "Book Antiqua"
WEIGHT_NAME "Bold"
SLANT "R"
SETWIDTH_NAME "Normal"
ADD_STYLE_NAME ""
PIXEL_SIZE 14
POINT_SIZE 140
RESOLUTION_X 75
RESOLUTION_Y 75
SPACING "P"
AVERAGE_WIDTH 74
CHARSET_REGISTRY "iso8859"
CHARSET_ENCODING "2"
FACE_NAME "Book Antiqua Bold ISO Latin2"
_DEC_DEVICE_FONTNAMES "PS=bookantiqua-b-lat2"
COPYRIGHT "Copyright (c) 1994 Monotype Typography Ltd."
CAP_HEIGHT 13
X_HEIGHT 9
WEIGHT 10
QUAD_WIDTH 9
DEFAULT_CHAR 160
FONT_DESCENT 5
FONT_ASCENT 15
ENDPROPERTIES

CHARS 191

STARTCHAR space
ENCODING 32
SWIDTH 250 0
DWIDTH 4 0
BBX 0 0 0 0
BITMAP
ENDCHAR

STARTCHAR exclam
ENCODING 33
SWIDTH 278 0
DWIDTH 4 0
BBX 2 12 1 0
BITMAP
C0
C0
C0
C0
C0
C0
C0
C0
C0
00
C0
C0
ENDCHAR

STARTCHAR quotedbl
ENCODING 34
SWIDTH 402 0
DWIDTH 6 0
BBX 5 4 1 7
BITMAP
D8
D8
D8
48
ENDCHAR

STARTCHAR numbersign
ENCODING 35
SWIDTH 606 0
DWIDTH 9 0
BBX 9 11 0 0
BITMAP
1B00
1B00
1B00
7F80
3600
3600
3600
FF00
6C00
6C00
6C00
ENDCHAR

STARTCHAR dollar
ENCODING 36
SWIDTH 500 0
DWIDTH 8 0
BBX 7 13 1 -1
BITMAP
10
3E
52
D2
D0
F0
7C
1E
16
96
94
F8
10
ENDCHAR

STARTCHAR percent
ENCODING 37
SWIDTH 889 0
DWIDTH 13 0
BBX 12 11 1 0
BITMAP
6060
B0C0
B080
B100
B300
6260
04B0
0CB0
08B0
10B0
3060
ENDCHAR

STARTCHAR ampersand
ENCODING 38
SWIDTH 833 0
DWIDTH 12 0
BBX 11 11 1 0
BITMAP
1800
2C00
2400
2400
3800
31E0
5880
CC80
C700
E7A0
7CC0
ENDCHAR

STARTCHAR quoteright
ENCODING 39
SWIDTH 278 0
DWIDTH 4 0
BBX 3 4 0 8
BITMAP
60
60
40
80
ENDCHAR

STARTCHAR parenleft
ENCODING 40
SWIDTH 333 0
DWIDTH 5 0
BBX 4 16 1 -4
BITMAP
10
20
60
40
C0
C0
C0
C0
C0
C0
C0
C0
40
60
20
10
ENDCHAR

STARTCHAR parenright
ENCODING 41
SWIDTH 333 0
DWIDTH 5 0
BBX 4 16 0 -4
BITMAP
80
40
60
20
30
30
30
30
30
30
30
30
20
60
40
80
ENDCHAR

STARTCHAR asterisk
ENCODING 42
SWIDTH 444 0
DWIDTH 7 0
BBX 5 5 1 7
BITMAP
20
A8
70
A8
20
ENDCHAR

STARTCHAR plus
ENCODING 43
SWIDTH 606 0
DWIDTH 9 0
BBX 8 8 1 1
BITMAP
18
18
18
FF
FF
18
18
18
ENDCHAR

STARTCHAR comma
ENCODING 44
SWIDTH 250 0
DWIDTH 4 0
BBX 3 4 0 -2
BITMAP
60
60
40
80
ENDCHAR

STARTCHAR minus
ENCODING 45
SWIDTH 606 0
DWIDTH 9 0
BBX 7 2 1 4
BITMAP
FE
FE
ENDCHAR

STARTCHAR period
ENCODING 46
SWIDTH 250 0
DWIDTH 4 0
BBX 2 2 1 0
BITMAP
C0
C0
ENDCHAR

STARTCHAR slash
ENCODING 47
SWIDTH 296 0
DWIDTH 4 0
BBX 10 16 -3 -4
BITMAP
00C0
0180
0180
0300
0300
0600
0600
0C00
0C00
1800
1800
3000
3000
6000
6000
C000
ENDCHAR

STARTCHAR zero
ENCODING 48
SWIDTH 500 0
DWIDTH 8 0
BBX 7 11 1 0
BITMAP
38
44
C6
C6
C6
C6
C6
C6
C6
44
38
ENDCHAR

STARTCHAR one
ENCODING 49
SWIDTH 500 0
DWIDTH 8 0
BBX 6 11 1 0
BITMAP
10
F0
30
30
30
30
30
30
30
30
FC
ENDCHAR

STARTCHAR two
ENCODING 50
SWIDTH 500 0
DWIDTH 8 0
BBX 6 11 1 0
BITMAP
78
9C
8C
0C
0C
18
10
20
40
FC
FC
ENDCHAR

STARTCHAR three
ENCODING 51
SWIDTH 500 0
DWIDTH 8 0
BBX 6 11 1 0
BITMAP
78
9C
8C
0C
78
0C
0C
0C
8C
98
70
ENDCHAR

STARTCHAR four
ENCODING 52
SWIDTH 500 0
DWIDTH 8 0
BBX 8 11 0 0
BITMAP
04
0C
1C
2C
2C
4C
8C
FF
0C
0C
3F
ENDCHAR

STARTCHAR five
ENCODING 53
SWIDTH 500 0
DWIDTH 8 0
BBX 6 11 1 0
BITMAP
FC
FC
80
80
F8
9C
0C
0C
0C
98
70
ENDCHAR

STARTCHAR six
ENCODING 54
SWIDTH 500 0
DWIDTH 8 0
BBX 7 11 1 0
BITMAP
0C
30
60
40
DC
E6
C6
C6
C6
44
38
ENDCHAR

STARTCHAR seven
ENCODING 55
SWIDTH 500 0
DWIDTH 8 0
BBX 7 11 1 0
BITMAP
FE
FE
86
84
0C
08
18
30
30
60
60
ENDCHAR

STARTCHAR eight
ENCODING 56
SWIDTH 500 0
DWIDTH 8 0
BBX 6 11 1 0
BITMAP
38
4C
C4
C4
E8
78
5C
8C
8C
C8
70
ENDCHAR

STARTCHAR nine
ENCODING 57
SWIDTH 500 0
DWIDTH 8 0
BBX 7 11 1 0
BITMAP
38
44
C6
C6
C6
CE
76
04
0C
18
60
ENDCHAR

STARTCHAR colon
ENCODING 58
SWIDTH 250 0
DWIDTH 4 0
BBX 2 7 1 0
BITMAP
C0
C0
00
00
00
C0
C0
ENDCHAR

STARTCHAR semicolon
ENCODING 59
SWIDTH 250 0
DWIDTH 4 0
BBX 3 9 0 -2
BITMAP
60
60
00
00
00
60
60
40
80
ENDCHAR

STARTCHAR less
ENCODING 60
SWIDTH 606 0
DWIDTH 9 0
BBX 7 8 1 1
BITMAP
02
0E
38
E0
E0
38
0E
02
ENDCHAR

STARTCHAR equal
ENCODING 61
SWIDTH 606 0
DWIDTH 9 0
BBX 7 6 1 2
BITMAP
FE
FE
00
00
FE
FE
ENDCHAR

STARTCHAR greater
ENCODING 62
SWIDTH 606 0
DWIDTH 9 0
BBX 7 8 1 1
BITMAP
80
E0
38
0E
0E
38
E0
80
ENDCHAR

STARTCHAR question
ENCODING 63
SWIDTH 444 0
DWIDTH 7 0
BBX 5 12 1 0
BITMAP
70
98
98
18
18
30
60
40
40
00
60
60
ENDCHAR

STARTCHAR at
ENCODING 64
SWIDTH 747 0
DWIDTH 11 0
BBX 11 13 0 -2
BITMAP
0780
1840
2020
4520
4F20
8920
9920
9A40
9EC0
4B20
4040
3180
0E00
ENDCHAR

STARTCHAR A
ENCODING 65
SWIDTH 778 0
DWIDTH 11 0
BBX 10 11 1 0
BITMAP
0400
0C00
0C00
0E00
1600
1600
2300
3F00
4380
4180
E3C0
ENDCHAR

STARTCHAR B
ENCODING 66
SWIDTH 667 0
DWIDTH 10 0
BBX 8 11 1 0
BITMAP
FE
63
63
63
63
7E
63
63
63
63
FE
ENDCHAR

STARTCHAR C
ENCODING 67
SWIDTH 722 0
DWIDTH 11 0
BBX 9 11 1 0
BITMAP
1F80
7080
6080
C000
C000
C000
C000
C000
6000
7080
1F00
ENDCHAR

STARTCHAR D
ENCODING 68
SWIDTH 833 0
DWIDTH 12 0
BBX 11 11 1 0
BITMAP
FF00
61C0
60C0
6060
6060
6060
6060
6060
60C0
61C0
FF00
ENDCHAR

STARTCHAR E
ENCODING 69
SWIDTH 611 0
DWIDTH 10 0
BBX 8 11 1 0
BITMAP
FF
61
61
60
62
7E
62
60
61
61
FF
ENDCHAR

STARTCHAR F
ENCODING 70
SWIDTH 556 0
DWIDTH 8 0
BBX 7 11 1 0
BITMAP
FE
62
62
60
64
7C
64
60
60
60
F0
ENDCHAR

STARTCHAR G
ENCODING 71
SWIDTH 833 0
DWIDTH 12 0
BBX 11 11 1 0
BITMAP
1FC0
7040
6040
C000
C000
C000
C000
C3E0
60C0
70C0
1F80
ENDCHAR

STARTCHAR H
ENCODING 72
SWIDTH 833 0
DWIDTH 12 0
BBX 11 11 1 0
BITMAP
F1E0
60C0
60C0
60C0
60C0
7FC0
60C0
60C0
60C0
60C0
F1E0
ENDCHAR

STARTCHAR I
ENCODING 73
SWIDTH 389 0
DWIDTH 5 0
BBX 4 11 1 0
BITMAP
F0
60
60
60
60
60
60
60
60
60
F0
ENDCHAR

STARTCHAR J
ENCODING 74
SWIDTH 389 0
DWIDTH 6 0
BBX 5 15 1 -4
BITMAP
78
30
30
30
30
30
30
30
30
30
30
30
30
A0
C0
ENDCHAR

STARTCHAR K
ENCODING 75
SWIDTH 778 0
DWIDTH 12 0
BBX 10 11 1 0
BITMAP
F1C0
6080
6100
6200
6400
7800
6C00
6600
6300
6180
F3C0
ENDCHAR

STARTCHAR L
ENCODING 76
SWIDTH 611 0
DWIDTH 9 0
BBX 8 11 1 0
BITMAP
F0
60
60
60
60
60
60
60
61
61
FF
ENDCHAR

STARTCHAR M
ENCODING 77
SWIDTH 1000 0
DWIDTH 14 0
BBX 13 11 1 0
BITMAP
E038
6030
7070
7070
58B0
58B0
58B0
4D30
4D30
4630
E678
ENDCHAR

STARTCHAR N
ENCODING 78
SWIDTH 833 0
DWIDTH 12 0
BBX 11 11 1 0
BITMAP
E0E0
6040
7040
7840
5C40
4C40
4640
4740
43C0
41C0
E0C0
ENDCHAR

STARTCHAR O
ENCODING 79
SWIDTH 833 0
DWIDTH 12 0
BBX 11 11 1 0
BITMAP
1F00
60C0
60C0
C060
C060
C060
C060
C060
60C0
60C0
1F00
ENDCHAR

STARTCHAR P
ENCODING 80
SWIDTH 611 0
DWIDTH 9 0
BBX 8 11 1 0
BITMAP
FE
63
63
63
63
6E
60
60
60
60
F0
ENDCHAR

STARTCHAR Q
ENCODING 81
SWIDTH 833 0
DWIDTH 12 0
BBX 12 14 1 -3
BITMAP
1F00
60C0
60C0
C060
C060
C060
C060
C060
60C0
60C0
1F00
0E10
1BE0
00C0
ENDCHAR

STARTCHAR R
ENCODING 82
SWIDTH 722 0
DWIDTH 11 0
BBX 10 11 1 0
BITMAP
FE00
6300
6300
6300
6600
6C00
6C00
6600
6300
6180
F3C0
ENDCHAR

STARTCHAR S
ENCODING 83
SWIDTH 611 0
DWIDTH 9 0
BBX 8 11 1 0
BITMAP
7F
E1
C1
C0
FC
7E
07
03
83
87
FE
ENDCHAR

STARTCHAR T
ENCODING 84
SWIDTH 667 0
DWIDTH 11 0
BBX 10 11 1 0
BITMAP
FFC0
8C40
8C40
0C00
0C00
0C00
0C00
0C00
0C00
0C00
1E00
ENDCHAR

STARTCHAR U
ENCODING 85
SWIDTH 778 0
DWIDTH 12 0
BBX 11 11 1 0
BITMAP
F0E0
6040
6040
6040
6040
6040
6040
6040
6040
3080
1F00
ENDCHAR

STARTCHAR V
ENCODING 86
SWIDTH 778 0
DWIDTH 12 0
BBX 11 11 1 0
BITMAP
F0E0
6040
7040
3080
3880
1880
1D00
0D00
0E00
0600
0400
ENDCHAR

STARTCHAR W
ENCODING 87
SWIDTH 1000 0
DWIDTH 14 0
BBX 15 11 0 0
BITMAP
F18E
6184
6184
3188
31C8
32C8
1AD0
1A50
1C70
0C60
0820
ENDCHAR

STARTCHAR X
ENCODING 88
SWIDTH 667 0
DWIDTH 11 0
BBX 10 11 1 0
BITMAP
E0C0
6180
3100
1A00
1C00
0C00
0C00
1600
2300
6180
C1C0
ENDCHAR

STARTCHAR Y
ENCODING 89
SWIDTH 667 0
DWIDTH 9 0
BBX 10 11 0 0
BITMAP
E0C0
6180
3100
3200
1A00
1C00
0C00
0C00
0C00
0C00
1E00
ENDCHAR

STARTCHAR Z
ENCODING 90
SWIDTH 667 0
DWIDTH 9 0
BBX 8 11 1 0
BITMAP
FF
83
86
06
0C
18
30
30
61
C1
FF
ENDCHAR

STARTCHAR bracketleft
ENCODING 91
SWIDTH 333 0
DWIDTH 5 0
BBX 4 16 1 -4
BITMAP
F0
C0
C0
C0
C0
C0
C0
C0
C0
C0
C0
C0
C0
C0
C0
F0
ENDCHAR

STARTCHAR backslash
ENCODING 92
SWIDTH 606 0
DWIDTH 9 0
BBX 10 16 0 -4
BITMAP
C000
6000
6000
3000
3000
1800
1800
0C00
0C00
0600
0600
0300
0300
0180
0180
00C0
ENDCHAR

STARTCHAR bracketright
ENCODING 93
SWIDTH 333 0
DWIDTH 5 0
BBX 4 16 0 -4
BITMAP
F0
30
30
30
30
30
30
30
30
30
30
30
30
30
30
F0
ENDCHAR

STARTCHAR asciicircum
ENCODING 94
SWIDTH 606 0
DWIDTH 9 0
BBX 7 6 1 5
BITMAP
10
38
28
6C
44
C6
ENDCHAR

STARTCHAR underscore
ENCODING 95
SWIDTH 500 0
DWIDTH 8 0
BBX 8 2 0 -3
BITMAP
FF
FF
ENDCHAR

STARTCHAR quoteleft
ENCODING 96
SWIDTH 278 0
DWIDTH 4 0
BBX 3 4 1 8
BITMAP
20
40
C0
C0
ENDCHAR

STARTCHAR a
ENCODING 97
SWIDTH 500 0
DWIDTH 8 0
BBX 7 7 1 0
BITMAP
38
4C
0C
7C
CC
CC
76
ENDCHAR

STARTCHAR b
ENCODING 98
SWIDTH 611 0
DWIDTH 9 0
BBX 8 12 1 0
BITMAP
20
E0
60
60
60
6C
76
63
63
63
66
DC
ENDCHAR

STARTCHAR c
ENCODING 99
SWIDTH 444 0
DWIDTH 7 0
BBX 6 7 1 0
BITMAP
3C
64
C0
C0
C0
44
38
ENDCHAR

STARTCHAR d
ENCODING 100
SWIDTH 611 0
DWIDTH 9 0
BBX 8 12 1 0
BITMAP
02
0E
06
06
06
36
6E
C6
C6
C6
6E
37
ENDCHAR

STARTCHAR e
ENCODING 101
SWIDTH 500 0
DWIDTH 8 0
BBX 7 7 1 0
BITMAP
38
44
C6
FE
C0
42
3C
ENDCHAR

STARTCHAR f
ENCODING 102
SWIDTH 389 0
DWIDTH 6 0
BBX 6 12 1 0
BITMAP
1C
24
60
60
60
F8
60
60
60
60
60
F0
ENDCHAR

STARTCHAR g
ENCODING 103
SWIDTH 556 0
DWIDTH 8 0
BBX 7 11 1 -4
BITMAP
7A
CC
CC
CC
78
40
FC
7E
86
84
78
ENDCHAR

STARTCHAR h
ENCODING 104
SWIDTH 611 0
DWIDTH 9 0
BBX 9 12 0 0
BITMAP
2000
E000
6000
6000
6000
6E00
7300
6300
6300
6300
6300
F380
ENDCHAR

STARTCHAR i
ENCODING 105
SWIDTH 333 0
DWIDTH 5 0
BBX 4 11 1 0
BITMAP
60
60
00
00
20
E0
60
60
60
60
F0
ENDCHAR

STARTCHAR j
ENCODING 106
SWIDTH 333 0
DWIDTH 5 0
BBX 4 15 0 -4
BITMAP
30
30
00
00
10
70
30
30
30
30
30
30
30
20
C0
ENDCHAR

STARTCHAR k
ENCODING 107
SWIDTH 611 0
DWIDTH 9 0
BBX 9 11 0 0
BITMAP
2000
E000
6000
6000
6300
6400
6800
7800
6C00
6600
F380
ENDCHAR

STARTCHAR l
ENCODING 108
SWIDTH 333 0
DWIDTH 5 0
BBX 4 12 1 0
BITMAP
20
E0
60
60
60
60
60
60
60
60
60
F0
ENDCHAR

STARTCHAR m
ENCODING 109
SWIDTH 889 0
DWIDTH 13 0
BBX 12 7 1 0
BITMAP
6EC0
F760
6660
6660
6660
6660
F770
ENDCHAR

STARTCHAR n
ENCODING 110
SWIDTH 611 0
DWIDTH 9 0
BBX 9 7 0 0
BITMAP
6E00
F300
6300
6300
6300
6300
F380
ENDCHAR

STARTCHAR o
ENCODING 111
SWIDTH 556 0
DWIDTH 8 0
BBX 7 7 1 0
BITMAP
38
44
C6
C6
C6
44
38
ENDCHAR

STARTCHAR p
ENCODING 112
SWIDTH 611 0
DWIDTH 9 0
BBX 8 11 1 -4
BITMAP
6C
F6
63
63
63
76
6C
60
60
60
F0
ENDCHAR

STARTCHAR q
ENCODING 113
SWIDTH 611 0
DWIDTH 9 0
BBX 8 11 1 -4
BITMAP
3A
4E
C6
C6
C6
6E
36
06
06
06
0F
ENDCHAR

STARTCHAR r
ENCODING 114
SWIDTH 389 0
DWIDTH 6 0
BBX 6 7 0 0
BITMAP
6C
F4
60
60
60
60
F0
ENDCHAR

STARTCHAR s
ENCODING 115
SWIDTH 444 0
DWIDTH 7 0
BBX 6 7 1 0
BITMAP
7C
C4
E0
78
1C
8C
F8
ENDCHAR

STARTCHAR t
ENCODING 116
SWIDTH 333 0
DWIDTH 5 0
BBX 5 10 0 0
BITMAP
20
60
60
F8
60
60
60
60
68
30
ENDCHAR

STARTCHAR u
ENCODING 117
SWIDTH 611 0
DWIDTH 9 0
BBX 9 7 0 0
BITMAP
2100
E700
6300
6300
6300
6700
3B80
ENDCHAR

STARTCHAR v
ENCODING 118
SWIDTH 556 0
DWIDTH 8 0
BBX 8 7 0 0
BITMAP
F7
62
62
34
34
18
18
ENDCHAR

STARTCHAR w
ENCODING 119
SWIDTH 833 0
DWIDTH 12 0
BBX 12 7 0 0
BITMAP
F270
6220
6720
3540
3540
18C0
18C0
ENDCHAR

STARTCHAR x
ENCODING 120
SWIDTH 500 0
DWIDTH 8 0
BBX 8 7 0 0
BITMAP
E3
6C
38
18
3C
26
C7
ENDCHAR

STARTCHAR y
ENCODING 121
SWIDTH 556 0
DWIDTH 8 0
BBX 8 11 0 -4
BITMAP
F7
62
62
34
34
18
18
10
10
20
C0
ENDCHAR

STARTCHAR z
ENCODING 122
SWIDTH 500 0
DWIDTH 8 0
BBX 7 7 1 0
BITMAP
FE
8C
18
30
30
62
FE
ENDCHAR

STARTCHAR braceleft
ENCODING 123
SWIDTH 310 0
DWIDTH 5 0
BBX 4 16 1 -4
BITMAP
10
20
60
60
60
60
40
80
80
40
60
60
60
60
20
10
ENDCHAR

STARTCHAR bar
ENCODING 124
SWIDTH 606 0
DWIDTH 9 0
BBX 2 16 4 -4
BITMAP
C0
C0
C0
C0
C0
C0
C0
C0
C0
C0
C0
C0
C0
C0
C0
C0
ENDCHAR

STARTCHAR braceright
ENCODING 125
SWIDTH 310 0
DWIDTH 5 0
BBX 4 16 1 -4
BITMAP
80
40
60
60
60
60
20
10
10
20
60
60
60
60
40
80
ENDCHAR

STARTCHAR asciitilde
ENCODING 126
SWIDTH 606 0
DWIDTH 9 0
BBX 8 2 1 4
BITMAP
79
9E
ENDCHAR

STARTCHAR space
ENCODING 160
SWIDTH 250 0
DWIDTH 5 0
BBX 0 0 0 0
BITMAP
ENDCHAR

STARTCHAR Aogonek
ENCODING 161
SWIDTH 778 0
DWIDTH 11 0
BBX 10 13 1 -2
BITMAP
0400
0C00
0C00
0E00
1600
1600
2300
3F00
4380
4180
E3C0
0300
01C0
ENDCHAR

STARTCHAR breve
ENCODING 162
SWIDTH 333 0
DWIDTH 5 0
BBX 6 2 0 8
BITMAP
CC
78
ENDCHAR

STARTCHAR Lslash
ENCODING 163
SWIDTH 611 0
DWIDTH 9 0
BBX 8 11 1 0
BITMAP
F0
60
60
68
70
60
E0
60
61
61
FF
ENDCHAR

STARTCHAR currency
ENCODING 164
SWIDTH 606 0
DWIDTH 9 0
BBX 8 8 1 1
BITMAP
DB
FF
42
C3
C3
42
FF
DB
ENDCHAR

STARTCHAR Lcaron
ENCODING 165
SWIDTH 611 0
DWIDTH 9 0
BBX 8 11 1 0
BITMAP
F6
66
64
68
60
60
60
60
61
61
FF
ENDCHAR

STARTCHAR Sacute
ENCODING 166
SWIDTH 611 0
DWIDTH 9 0
BBX 8 14 1 0
BITMAP
0C
18
00
7F
E1
C1
C0
FC
7E
07
03
83
87
FE
ENDCHAR

STARTCHAR section
ENCODING 167
SWIDTH 500 0
DWIDTH 8 0
BBX 7 16 0 -4
BITMAP
1C
24
64
60
60
78
CC
C6
C6
66
3C
0E
06
46
4C
70
ENDCHAR

STARTCHAR dieresis
ENCODING 168
SWIDTH 333 0
DWIDTH 5 0
BBX 5 2 0 8
BITMAP
D8
D8
ENDCHAR

STARTCHAR Scaron
ENCODING 169
SWIDTH 611 0
DWIDTH 9 0
BBX 8 14 1 0
BITMAP
36
1C
00
7F
E1
C1
C0
FC
7E
07
03
83
87
FE
ENDCHAR

STARTCHAR Scommaaccent
ENCODING 170
SWIDTH 611 0
DWIDTH 9 0
BBX 8 16 1 -5
BITMAP
7F
E1
C1
C0
FC
7E
07
03
83
87
FE
00
30
30
20
40
ENDCHAR

STARTCHAR Tcaron
ENCODING 171
SWIDTH 667 0
DWIDTH 11 0
BBX 10 14 1 0
BITMAP
1B00
0E00
0000
FFC0
8C40
8C40
0C00
0C00
0C00
0C00
0C00
0C00
0C00
1E00
ENDCHAR

STARTCHAR Zacute
ENCODING 172
SWIDTH 667 0
DWIDTH 9 0
BBX 8 14 1 0
BITMAP
0C
18
00
FF
83
86
06
0C
18
30
30
61
C1
FF
ENDCHAR

STARTCHAR hyphen
ENCODING 173
SWIDTH 333 0
DWIDTH 5 0
BBX 5 2 0 3
BITMAP
F8
F8
ENDCHAR

STARTCHAR Zcaron
ENCODING 174
SWIDTH 667 0
DWIDTH 9 0
BBX 8 14 1 0
BITMAP
36
1C
00
FF
83
86
06
0C
18
30
30
61
C1
FF
ENDCHAR

STARTCHAR Zdotaccent
ENCODING 175
SWIDTH 667 0
DWIDTH 9 0
BBX 8 14 1 0
BITMAP
18
18
00
FF
83
86
06
0C
18
30
30
61
C1
FF
ENDCHAR

STARTCHAR degree
ENCODING 176
SWIDTH 396 0
DWIDTH 6 0
BBX 5 5 0 6
BITMAP
70
D8
D8
D8
70
ENDCHAR

STARTCHAR aogonek
ENCODING 177
SWIDTH 500 0
DWIDTH 8 0
BBX 9 9 1 -2
BITMAP
3800
4C00
0C00
7C00
CC00
CC00
7600
0600
0380
ENDCHAR

STARTCHAR ogonek
ENCODING 178
SWIDTH 333 0
DWIDTH 5 0
BBX 4 2 1 -2
BITMAP
C0
70
ENDCHAR

STARTCHAR lslash
ENCODING 179
SWIDTH 333 0
DWIDTH 5 0
BBX 6 12 0 0
BITMAP
10
70
34
38
30
30
70
B0
30
30
30
78
ENDCHAR

STARTCHAR acute
ENCODING 180
SWIDTH 333 0
DWIDTH 5 0
BBX 3 2 1 8
BITMAP
60
C0
ENDCHAR

STARTCHAR lcaron
ENCODING 181
SWIDTH 449 0
DWIDTH 6 0
BBX 6 12 1 0
BITMAP
2C
EC
68
70
60
60
60
60
60
60
60
F0
ENDCHAR

STARTCHAR sacute
ENCODING 182
SWIDTH 444 0
DWIDTH 7 0
BBX 6 10 1 0
BITMAP
18
30
00
7C
C4
E0
78
1C
8C
F8
ENDCHAR

STARTCHAR caron
ENCODING 183
SWIDTH 333 0
DWIDTH 5 0
BBX 5 2 0 8
BITMAP
D8
70
ENDCHAR

STARTCHAR commaaccent
ENCODING 184
SWIDTH 333 0
DWIDTH 5 0
BBX 3 4 1 -5
BITMAP
60
60
40
80
ENDCHAR

STARTCHAR scaron
ENCODING 185
SWIDTH 444 0
DWIDTH 7 0
BBX 6 10 1 0
BITMAP
6C
38
00
7C
C4
E0
78
1C
8C
F8
ENDCHAR

STARTCHAR scommaaccent
ENCODING 186
SWIDTH 444 0
DWIDTH 7 0
BBX 6 12 1 -5
BITMAP
7C
C4
E0
78
1C
8C
F8
00
60
60
40
80
ENDCHAR

STARTCHAR tcaron
ENCODING 187
SWIDTH 420 0
DWIDTH 5 0
BBX 6 12 0 0
BITMAP
0C
0C
28
70
60
F8
60
60
60
60
68
30
ENDCHAR

STARTCHAR zacute
ENCODING 188
SWIDTH 500 0
DWIDTH 8 0
BBX 7 10 1 0
BITMAP
18
30
00
FE
8C
18
30
30
62
FE
ENDCHAR

STARTCHAR hungarumlaut
ENCODING 189
SWIDTH 333 0
DWIDTH 5 0
BBX 6 2 0 8
BITMAP
6C
D8
ENDCHAR

STARTCHAR zcaron
ENCODING 190
SWIDTH 500 0
DWIDTH 8 0
BBX 7 10 1 0
BITMAP
6C
38
00
FE
8C
18
30
30
62
FE
ENDCHAR

STARTCHAR zdotaccent
ENCODING 191
SWIDTH 500 0
DWIDTH 8 0
BBX 7 10 1 0
BITMAP
18
18
00
FE
8C
18
30
30
62
FE
ENDCHAR

STARTCHAR Racute
ENCODING 192
SWIDTH 722 0
DWIDTH 11 0
BBX 10 14 1 0
BITMAP
0C00
1800
0000
FE00
6300
6300
6300
6600
6C00
6C00
6600
6300
6180
F3C0
ENDCHAR

STARTCHAR Aacute
ENCODING 193
SWIDTH 778 0
DWIDTH 11 0
BBX 10 14 1 0
BITMAP
0600
0C00
0000
0400
0C00
0C00
0E00
1600
1600
2300
3F00
4380
4180
E3C0
ENDCHAR

STARTCHAR Acircumflex
ENCODING 194
SWIDTH 778 0
DWIDTH 11 0
BBX 10 14 1 0
BITMAP
0E00
1B00
0000
0400
0C00
0C00
0E00
1600
1600
2300
3F00
4380
4180
E3C0
ENDCHAR

STARTCHAR Abreve
ENCODING 195
SWIDTH 778 0
DWIDTH 11 0
BBX 10 14 1 0
BITMAP
1980
0F00
0000
0400
0C00
0C00
0E00
1600
1600
2300
3F00
4380
4180
E3C0
ENDCHAR

STARTCHAR Adieresis
ENCODING 196
SWIDTH 778 0
DWIDTH 11 0
BBX 10 14 1 0
BITMAP
1B00
1B00
0000
0400
0C00
0C00
0E00
1600
1600
2300
3F00
4380
4180
E3C0
ENDCHAR

STARTCHAR Lacute
ENCODING 197
SWIDTH 611 0
DWIDTH 9 0
BBX 8 14 1 0
BITMAP
18
30
00
F0
60
60
60
60
60
60
60
61
61
FF
ENDCHAR

STARTCHAR Cacute
ENCODING 198
SWIDTH 722 0
DWIDTH 11 0
BBX 9 14 1 0
BITMAP
0300
0600
0000
1F80
7080
6080
C000
C000
C000
C000
C000
6000
7080
1F00
ENDCHAR

STARTCHAR Ccedilla
ENCODING 199
SWIDTH 722 0
DWIDTH 11 0
BBX 9 14 1 -3
BITMAP
1F80
7080
6080
C000
C000
C000
C000
C000
6000
7080
1F00
0C00
0600
1C00
ENDCHAR

STARTCHAR Ccaron
ENCODING 200
SWIDTH 722 0
DWIDTH 11 0
BBX 9 14 1 0
BITMAP
1B00
0E00
0000
1F80
7080
6080
C000
C000
C000
C000
C000
6000
7080
1F00
ENDCHAR

STARTCHAR Eacute
ENCODING 201
SWIDTH 611 0
DWIDTH 10 0
BBX 8 14 1 0
BITMAP
0C
18
00
FF
61
61
60
62
7E
62
60
61
61
FF
ENDCHAR

STARTCHAR Eogonek
ENCODING 202
SWIDTH 611 0
DWIDTH 10 0
BBX 9 13 1 -2
BITMAP
FF00
6100
6100
6000
6200
7E00
6200
6000
6100
6100
FF00
0600
0380
ENDCHAR

STARTCHAR Edieresis
ENCODING 203
SWIDTH 611 0
DWIDTH 10 0
BBX 8 14 1 0
BITMAP
36
36
00
FF
61
61
60
62
7E
62
60
61
61
FF
ENDCHAR

STARTCHAR Ecaron
ENCODING 204
SWIDTH 611 0
DWIDTH 10 0
BBX 8 14 1 0
BITMAP
36
1C
00
FF
61
61
60
62
7E
62
60
61
61
FF
ENDCHAR

STARTCHAR Iacute
ENCODING 205
SWIDTH 389 0
DWIDTH 5 0
BBX 4 14 1 0
BITMAP
30
60
00
F0
60
60
60
60
60
60
60
60
60
F0
ENDCHAR

STARTCHAR Icircumflex
ENCODING 206
SWIDTH 389 0
DWIDTH 5 0
BBX 5 14 1 0
BITMAP
70
D8
00
F0
60
60
60
60
60
60
60
60
60
F0
ENDCHAR

STARTCHAR Dcaron
ENCODING 207
SWIDTH 833 0
DWIDTH 12 0
BBX 11 14 1 0
BITMAP
1B00
0E00
0000
FF00
61C0
60C0
6060
6060
6060
6060
6060
60C0
61C0
FF00
ENDCHAR

STARTCHAR Dcroat
ENCODING 208
SWIDTH 833 0
DWIDTH 12 0
BBX 11 11 1 0
BITMAP
FF00
61C0
60C0
6060
6060
FC60
6060
6060
60C0
61C0
FF00
ENDCHAR

STARTCHAR Nacute
ENCODING 209
SWIDTH 833 0
DWIDTH 12 0
BBX 11 14 1 0
BITMAP
0600
0C00
0000
E0E0
6040
7040
7840
5C40
4C40
4640
4740
43C0
41C0
E0C0
ENDCHAR

STARTCHAR Ncaron
ENCODING 210
SWIDTH 833 0
DWIDTH 12 0
BBX 11 14 1 0
BITMAP
1B00
0E00
0000
E0E0
6040
7040
7840
5C40
4C40
4640
4740
43C0
41C0
E0C0
ENDCHAR

STARTCHAR Oacute
ENCODING 211
SWIDTH 833 0
DWIDTH 12 0
BBX 11 14 1 0
BITMAP
0600
0C00
0000
1F00
60C0
60C0
C060
C060
C060
C060
C060
60C0
60C0
1F00
ENDCHAR

STARTCHAR Ocircumflex
ENCODING 212
SWIDTH 833 0
DWIDTH 12 0
BBX 11 14 1 0
BITMAP
0E00
1B00
0000
1F00
60C0
60C0
C060
C060
C060
C060
C060
60C0
60C0
1F00
ENDCHAR

STARTCHAR Ohungarumlaut
ENCODING 213
SWIDTH 833 0
DWIDTH 12 0
BBX 11 14 1 0
BITMAP
0D80
1B00
0000
1F00
60C0
60C0
C060
C060
C060
C060
C060
60C0
60C0
1F00
ENDCHAR

STARTCHAR Odieresis
ENCODING 214
SWIDTH 833 0
DWIDTH 12 0
BBX 11 14 1 0
BITMAP
1B00
1B00
0000
1F00
60C0
60C0
C060
C060
C060
C060
C060
60C0
60C0
1F00
ENDCHAR

STARTCHAR multiply
ENCODING 215
SWIDTH 606 0
DWIDTH 9 0
BBX 7 6 1 2
BITMAP
C6
6C
38
38
6C
C6
ENDCHAR

STARTCHAR Rcaron
ENCODING 216
SWIDTH 722 0
DWIDTH 11 0
BBX 10 14 1 0
BITMAP
3600
1C00
0000
FE00
6300
6300
6300
6600
6C00
6C00
6600
6300
6180
F3C0
ENDCHAR

STARTCHAR Uring
ENCODING 217
SWIDTH 778 0
DWIDTH 12 0
BBX 11 15 1 0
BITMAP
0600
0900
0600
0000
F0E0
6040
6040
6040
6040
6040
6040
6040
6040
3080
1F00
ENDCHAR

STARTCHAR Uacute
ENCODING 218
SWIDTH 778 0
DWIDTH 12 0
BBX 11 14 1 0
BITMAP
0300
0600
0000
F0E0
6040
6040
6040
6040
6040
6040
6040
6040
3080
1F00
ENDCHAR

STARTCHAR Uhungarumlaut
ENCODING 219
SWIDTH 778 0
DWIDTH 12 0
BBX 11 14 1 0
BITMAP
0D80
1B00
0000
F0E0
6040
6040
6040
6040
6040
6040
6040
6040
3080
1F00
ENDCHAR

STARTCHAR Udieresis
ENCODING 220
SWIDTH 778 0
DWIDTH 12 0
BBX 11 14 1 0
BITMAP
0D80
0D80
0000
F0E0
6040
6040
6040
6040
6040
6040
6040
6040
3080
1F00
ENDCHAR

STARTCHAR Yacute
ENCODING 221
SWIDTH 667 0
DWIDTH 9 0
BBX 10 14 0 0
BITMAP
0600
0C00
0000
E0C0
6180
3100
3200
1A00
1C00
0C00
0C00
0C00
0C00
1E00
ENDCHAR

STARTCHAR Tcommaaccent
ENCODING 222
SWIDTH 667 0
DWIDTH 11 0
BBX 10 16 1 -5
BITMAP
FFC0
8C40
8C40
0C00
0C00
0C00
0C00
0C00
0C00
0C00
1E00
0000
0C00
0C00
0800
1000
ENDCHAR

STARTCHAR germandbls
ENCODING 223
SWIDTH 611 0
DWIDTH 9 0
BBX 9 12 0 0
BITMAP
1C00
3200
6300
6300
6300
E600
6C00
6700
6380
6180
6900
EE00
ENDCHAR

STARTCHAR racute
ENCODING 224
SWIDTH 389 0
DWIDTH 6 0
BBX 6 10 0 0
BITMAP
18
30
00
6C
F4
60
60
60
60
F0
ENDCHAR

STARTCHAR aacute
ENCODING 225
SWIDTH 500 0
DWIDTH 8 0
BBX 7 10 1 0
BITMAP
18
30
00
38
4C
0C
7C
CC
CC
76
ENDCHAR

STARTCHAR acircumflex
ENCODING 226
SWIDTH 500 0
DWIDTH 8 0
BBX 7 10 1 0
BITMAP
38
6C
00
38
4C
0C
7C
CC
CC
76
ENDCHAR

STARTCHAR abreve
ENCODING 227
SWIDTH 500 0
DWIDTH 8 0
BBX 7 10 1 0
BITMAP
66
3C
00
38
4C
0C
7C
CC
CC
76
ENDCHAR

STARTCHAR adieresis
ENCODING 228
SWIDTH 500 0
DWIDTH 8 0
BBX 7 10 1 0
BITMAP
6C
6C
00
38
4C
0C
7C
CC
CC
76
ENDCHAR

STARTCHAR lacute
ENCODING 229
SWIDTH 333 0
DWIDTH 5 0
BBX 4 15 1 0
BITMAP
30
60
00
20
E0
60
60
60
60
60
60
60
60
60
F0
ENDCHAR

STARTCHAR cacute
ENCODING 230
SWIDTH 444 0
DWIDTH 7 0
BBX 6 10 1 0
BITMAP
0C
18
00
3C
64
C0
C0
C0
44
38
ENDCHAR

STARTCHAR ccedilla
ENCODING 231
SWIDTH 444 0
DWIDTH 7 0
BBX 6 10 1 -3
BITMAP
3C
64
C0
C0
C0
44
38
30
18
70
ENDCHAR

STARTCHAR ccaron
ENCODING 232
SWIDTH 444 0
DWIDTH 7 0
BBX 6 10 1 0
BITMAP
6C
38
00
3C
64
C0
C0
C0
44
38
ENDCHAR

STARTCHAR eacute
ENCODING 233
SWIDTH 500 0
DWIDTH 8 0
BBX 7 10 1 0
BITMAP
0C
18
00
38
44
C6
FE
C0
42
3C
ENDCHAR

STARTCHAR eogonek
ENCODING 234
SWIDTH 500 0
DWIDTH 8 0
BBX 7 9 1 -2
BITMAP
38
44
C6
FE
C0
42
3C
18
0E
ENDCHAR

STARTCHAR edieresis
ENCODING 235
SWIDTH 500 0
DWIDTH 8 0
BBX 7 10 1 0
BITMAP
6C
6C
00
38
44
C6
FE
C0
42
3C
ENDCHAR

STARTCHAR ecaron
ENCODING 236
SWIDTH 500 0
DWIDTH 8 0
BBX 7 10 1 0
BITMAP
6C
38
00
38
44
C6
FE
C0
42
3C
ENDCHAR

STARTCHAR iacute
ENCODING 237
SWIDTH 333 0
DWIDTH 5 0
BBX 4 10 1 0
BITMAP
30
60
00
20
E0
60
60
60
60
F0
ENDCHAR

STARTCHAR icircumflex
ENCODING 238
SWIDTH 333 0
DWIDTH 5 0
BBX 5 10 1 0
BITMAP
70
D8
00
20
E0
60
60
60
60
F0
ENDCHAR

STARTCHAR dcaron
ENCODING 239
SWIDTH 738 0
DWIDTH 10 0
BBX 10 12 1 0
BITMAP
02C0
0EC0
0680
0700
0600
3600
6E00
C600
C600
C600
6E00
3700
ENDCHAR

STARTCHAR dcroat
ENCODING 240
SWIDTH 611 0
DWIDTH 9 0
BBX 8 12 1 0
BITMAP
02
0E
06
1F
06
36
6E
C6
C6
C6
6E
37
ENDCHAR

STARTCHAR nacute
ENCODING 241
SWIDTH 611 0
DWIDTH 9 0
BBX 9 10 0 0
BITMAP
0C00
1800
0000
6E00
F300
6300
6300
6300
6300
F380
ENDCHAR

STARTCHAR ncaron
ENCODING 242
SWIDTH 611 0
DWIDTH 9 0
BBX 9 10 0 0
BITMAP
3600
1C00
0000
6E00
F300
6300
6300
6300
6300
F380
ENDCHAR

STARTCHAR oacute
ENCODING 243
SWIDTH 556 0
DWIDTH 8 0
BBX 7 10 1 0
BITMAP
18
30
00
38
44
C6
C6
C6
44
38
ENDCHAR

STARTCHAR ocircumflex
ENCODING 244
SWIDTH 556 0
DWIDTH 8 0
BBX 7 10 1 0
BITMAP
38
6C
00
38
44
C6
C6
C6
44
38
ENDCHAR

STARTCHAR ohungarumlaut
ENCODING 245
SWIDTH 556 0
DWIDTH 8 0
BBX 7 10 1 0
BITMAP
36
6C
00
38
44
C6
C6
C6
44
38
ENDCHAR

STARTCHAR odieresis
ENCODING 246
SWIDTH 556 0
DWIDTH 8 0
BBX 7 10 1 0
BITMAP
6C
6C
00
38
44
C6
C6
C6
44
38
ENDCHAR

STARTCHAR divide
ENCODING 247
SWIDTH 606 0
DWIDTH 9 0
BBX 8 8 1 1
BITMAP
18
18
00
FF
FF
00
18
18
ENDCHAR

STARTCHAR rcaron
ENCODING 248
SWIDTH 389 0
DWIDTH 6 0
BBX 6 10 0 0
BITMAP
6C
38
00
6C
F4
60
60
60
60
F0
ENDCHAR

STARTCHAR uring
ENCODING 249
SWIDTH 611 0
DWIDTH 9 0
BBX 9 11 0 0
BITMAP
0C00
1200
0C00
0000
2100
E700
6300
6300
6300
6700
3B80
ENDCHAR

STARTCHAR uacute
ENCODING 250
SWIDTH 611 0
DWIDTH 9 0
BBX 9 10 0 0
BITMAP
0600
0C00
0000
2100
E700
6300
6300
6300
6700
3B80
ENDCHAR

STARTCHAR uhungarumlaut
ENCODING 251
SWIDTH 611 0
DWIDTH 9 0
BBX 9 10 0 0
BITMAP
1B00
3600
0000
2100
E700
6300
6300
6300
6700
3B80
ENDCHAR

STARTCHAR udieresis
ENCODING 252
SWIDTH 611 0
DWIDTH 9 0
BBX 9 10 0 0
BITMAP
3600
3600
0000
2100
E700
6300
6300
6300
6700
3B80
ENDCHAR

STARTCHAR yacute
ENCODING 253
SWIDTH 556 0
DWIDTH 8 0
BBX 8 14 0 -4
BITMAP
0C
18
00
F7
62
62
34
34
18
18
10
10
20
C0
ENDCHAR

STARTCHAR tcommaaccent
ENCODING 254
SWIDTH 333 0
DWIDTH 5 0
BBX 5 15 0 -5
BITMAP
20
60
60
F8
60
60
60
60
68
30
00
60
60
40
80
ENDCHAR

STARTCHAR dotaccent
ENCODING 255
SWIDTH 333 0
DWIDTH 5 0
BBX 2 2 2 8
BITMAP
C0
C0
ENDCHAR
ENDFONT
